<?xml version="1.0" standalone="no"?>
<!DOCTYPE svg PUBLIC "-//W3C//DTD SVG 20010904//EN"
 "http://www.w3.org/TR/2001/REC-SVG-20010904/DTD/svg10.dtd">
<svg version="1.0" xmlns="http://www.w3.org/2000/svg"
 width="512.000000pt" height="512.000000pt" viewBox="0 0 512.000000 512.000000"
 preserveAspectRatio="xMidYMid meet">

<g transform="translate(0.000000,512.000000) scale(0.100000,-0.100000)"
fill="#000000" stroke="none">
<path d="M236 4887 l-26 -26 0 -271 0 -271 26 -26 c23 -23 31 -25 83 -20 109
9 212 83 258 184 l24 53 710 0 c441 0 709 -4 709 -9 0 -6 -16 -22 -36 -38 -32
-24 -48 -28 -126 -33 -127 -7 -128 -9 -128 -194 l0 -142 -337 -74 c-360 -80
-383 -88 -383 -144 0 -13 9 -45 20 -71 11 -26 20 -48 20 -51 0 -2 -146 -51
-326 -110 -248 -81 -328 -111 -339 -128 -11 -16 -32 -364 -94 -1511 -45 -820
-81 -1498 -81 -1508 0 -10 11 -29 25 -42 24 -25 27 -25 200 -25 l175 0 0 -135
c0 -131 1 -137 25 -160 l24 -25 1151 0 1151 0 24 25 c24 23 25 29 25 160 l0
135 175 0 c173 0 176 0 200 25 15 14 25 35 25 52 0 15 -34 640 -74 1387 l-74
1359 65 173 65 172 42 -12 c184 -57 523 -170 530 -177 7 -6 80 -1216 86 -1406
0 -10 -41 -13 -171 -13 l-171 0 6 137 c3 76 9 193 12 261 l6 122 -81 0 c-70 0
-81 -2 -81 -17 0 -38 -20 -473 -25 -570 l-6 -103 93 0 c51 0 117 -3 146 -6
l52 -7 0 -578 0 -579 -90 0 -90 0 0 -91 0 -91 143 4 c164 4 189 13 206 75 7
25 11 257 11 656 l0 617 106 0 107 0 -7 97 c-6 94 -76 1354 -76 1380 0 10 42
13 195 13 l195 0 0 -800 0 -800 -120 0 -120 0 0 -80 0 -80 175 0 c173 0 176 0
200 25 l25 24 0 856 0 855 135 0 c131 0 137 1 160 25 14 13 25 36 25 50 0 33
-255 541 -277 553 -10 5 -168 42 -350 83 l-333 73 0 87 0 86 45 6 c100 14 199
89 242 184 l24 53 129 0 129 0 24 -53 c46 -101 149 -175 258 -184 52 -5 60 -3
83 20 l26 26 0 271 0 271 -26 26 c-23 23 -31 25 -83 20 -109 -9 -212 -83 -258
-184 l-24 -53 -129 0 -129 0 -20 46 c-32 71 -75 118 -143 155 l-63 34 -162 3
-163 4 0 -80 0 -81 148 -3 c145 -3 150 -4 185 -31 20 -15 37 -32 37 -38 0 -5
-209 -9 -550 -9 l-549 0 -20 46 c-32 71 -75 118 -143 155 l-63 34 -162 3 -163
4 0 -80 0 -81 148 -3 c145 -3 150 -4 185 -31 20 -15 37 -32 37 -38 0 -5 -136
-9 -350 -9 l-349 0 -20 46 c-32 71 -75 118 -143 155 l-63 34 -163 3 -162 4 0
-80 0 -81 148 -3 c145 -3 150 -4 185 -31 20 -15 37 -32 37 -38 0 -5 -269 -9
-710 -9 l-709 0 -20 46 c-48 108 -148 181 -261 191 -53 5 -61 3 -84 -20z m210
-261 c10 -56 -4 -104 -41 -144 l-34 -37 0 145 0 145 34 -37 c19 -20 37 -52 41
-72z m4404 -38 l-1 -143 -34 37 c-58 62 -59 150 -3 213 16 19 32 35 34 35 2 0
4 -64 4 -142z m-1950 -87 c0 -6 -16 -22 -36 -38 -32 -24 -48 -28 -126 -33
-130 -7 -128 -3 -128 -242 0 -233 -6 -223 155 -257 61 -13 113 -25 117 -28 4
-2 -17 -53 -47 -112 l-54 -109 -98 30 c-54 17 -102 34 -106 38 -4 3 1 28 13
54 11 26 20 59 20 72 0 56 -23 64 -382 144 l-338 74 0 87 0 86 45 6 c100 14
199 89 242 184 l24 53 350 0 c213 0 349 -4 349 -9z m1280 0 c0 -6 -16 -22 -36
-38 -32 -24 -48 -28 -126 -33 -127 -7 -128 -9 -128 -194 l0 -143 -82 -17 c-46
-10 -113 -25 -149 -33 l-66 -15 17 -76 c19 -90 -5 -86 212 -37 l148 33 331
-74 c183 -41 333 -75 334 -76 2 -2 39 -76 84 -165 l81 -163 -335 0 c-279 0
-335 2 -335 14 0 40 -38 57 -345 156 -170 55 -316 103 -323 105 -9 3 -7 17 8
57 48 128 49 127 -362 218 l-338 74 0 87 0 86 45 6 c100 14 199 89 242 184
l24 53 550 0 c340 0 549 -4 549 -9z m-2070 -620 c230 -51 304 -72 302 -82 -2
-8 -55 -146 -119 -306 -77 -193 -120 -290 -127 -284 -78 58 -206 165 -206 170
0 4 70 49 156 101 85 51 159 102 165 111 23 45 11 70 -81 163 l-89 91 -58 -57
-57 -58 42 -43 42 -42 -129 -78 c-71 -42 -135 -77 -141 -77 -6 0 -70 35 -141
77 l-129 78 40 40 c22 23 40 45 40 50 0 13 -92 105 -105 105 -6 0 -50 -40 -98
-89 -89 -91 -101 -116 -77 -160 5 -10 79 -60 165 -111 85 -51 155 -96 155
-100 0 -6 -124 -109 -206 -171 -7 -6 -50 91 -127 284 -64 160 -117 298 -119
306 -2 10 71 30 297 81 165 38 300 69 300 69 0 0 137 -30 305 -68z m1143 -57
c20 -4 39 -10 42 -14 5 -8 -82 -241 -94 -253 -9 -9 -238 57 -254 72 -4 4 17
60 47 123 l54 116 84 -19 c46 -10 100 -22 121 -25z m-2025 -515 c66 -165 122
-291 134 -301 41 -36 68 -24 209 89 74 58 140 110 147 116 9 8 12 -287 12
-1467 l0 -1476 -480 0 -480 0 0 80 0 80 95 0 c88 0 98 2 120 25 14 13 25 34
25 47 0 13 -18 468 -40 1013 -22 545 -40 991 -40 993 0 1 -36 2 -80 2 -44 0
-80 -3 -80 -7 0 -27 70 -1775 74 -1835 l4 -78 -237 0 -236 0 76 1405 c41 773
79 1408 83 1412 9 11 558 192 571 189 5 -2 61 -130 123 -287z m1607 186 c132
-43 244 -81 249 -86 6 -5 44 -641 85 -1414 l76 -1405 -236 0 -237 0 4 78 c4
60 74 1808 74 1835 0 4 -36 7 -80 7 -44 0 -80 -1 -80 -2 0 -2 -18 -448 -40
-993 -22 -545 -40 -1000 -40 -1013 0 -13 11 -34 25 -47 22 -23 32 -25 120 -25
l95 0 0 -80 0 -80 -480 0 -480 0 0 1476 c0 1180 3 1475 13 1467 6 -6 72 -58
146 -116 141 -113 168 -125 209 -89 12 10 67 134 132 297 62 154 114 283 116
287 5 8 7 7 329 -97z"/>
<path d="M1410 2590 l0 -80 80 0 80 0 0 80 0 80 -80 0 -80 0 0 -80z"/>
<path d="M1410 1790 l0 -80 80 0 80 0 0 80 0 80 -80 0 -80 0 0 -80z"/>
<path d="M1410 990 l0 -80 80 0 80 0 0 80 0 80 -80 0 -80 0 0 -80z"/>
<path d="M450 830 l0 -80 80 0 80 0 0 80 0 80 -80 0 -80 0 0 -80z"/>
<path d="M3010 830 l0 -80 80 0 80 0 0 80 0 80 -80 0 -80 0 0 -80z"/>
</g>
</svg>
